# xmcd
#
# Track frame offsets:
#	150
#	19611
#	36987
#	54163
#	72053
#	88312
#	105676
#	121280
#	136358
#
# Disc length: 2025 seconds
#
# Revision: 0
# Processed by: cddbd v1.5.2PL0 Copyright (c) Steve Scherf et al.
# Submitted via: audiograbber 1.83.01
#
DISCID=7407e709
DTITLE=FastTrax - FTXC415
DYEAR=1900
DGENRE=
TTITLE0=ERIC CHURCH - SPRINGSTEEN
TTITLE1=CHRIS CAGLE - GOT MY COUNTRY ON
TTITLE2=ZAC BROWN BAND - NO HURRY
TTITLE3=GLORIANA - (KISSED YOU) GOODNIGHT
TTITLE4=THE BAND PERRY - POSTCARD FROM PARIS
TTITLE5=THOMPSON SQUARE - GLASS
TTITLE6=TOBY KEITH - BEERS AGO
TTITLE7=THOMAS RHETT - SOMETHING TO DO WITH MY HANDS
TTITLE8=KENNY CHESNEY and TIM MCGRAW - FEEL LIKE A ROCK STAR
EXTD=
EXTT0=
EXTT1=
EXTT2=
EXTT3=
EXTT4=
EXTT5=
EXTT6=
EXTT7=
EXTT8=
PLAYORDER=
